HIERARCHY
ROOT joint_0
{
	OFFSET 0.000000 0.000000 0.000000
	CHANNELS 6 Xposition Yposition Zposition Zrotation Yrotation Xrotation 
	JOINT joint_1
	{
		OFFSET 6.004005 -1.946999 100.587036
		CHANNELS 3 Zrotation Yrotation Xrotation
		JOINT joint_2
		{
			OFFSET -4.601006 -0.824997 91.925903
			CHANNELS 3 Zrotation Yrotation Xrotation
			JOINT joint_3
			{
				OFFSET -5.420998 -1.130005 91.774048
				CHANNELS 3 Zrotation Yrotation Xrotation
				JOINT joint_4
				{
					OFFSET 4.308998 -3.777992 123.473999
					CHANNELS 3 Zrotation Yrotation Xrotation
					JOINT joint_5
					{
						OFFSET 25.565002 -6.305008 79.437988
						CHANNELS 3 Zrotation Yrotation Xrotation
						End Site
						{
							OFFSET 0.000000 0.000000 0.000000
						}
					}
				}
				JOINT joint_6
				{
					OFFSET -1.750000 -28.655998 68.557983
					CHANNELS 3 Zrotation Yrotation Xrotation
					JOINT joint_7
					{
						OFFSET -17.692001 -116.544006 -17.244019
						CHANNELS 3 Zrotation Yrotation Xrotation
						JOINT joint_8
						{
							OFFSET 27.063004 -23.640991 -266.895020
							CHANNELS 3 Zrotation Yrotation Xrotation
							JOINT joint_9
							{
								OFFSET 40.722000 -15.761017 -232.488953
								CHANNELS 3 Zrotation Yrotation Xrotation
								End Site
								{
									OFFSET 0.000000 0.000000 0.000000
								}
							}
						}
					}
				}
				JOINT joint_10
				{
					OFFSET 6.593002 24.457001 69.892944
					CHANNELS 3 Zrotation Yrotation Xrotation
					JOINT joint_11
					{
						OFFSET 24.311996 114.920002 -19.872925
						CHANNELS 3 Zrotation Yrotation Xrotation
						JOINT joint_12
						{
							OFFSET 21.081001 15.319000 -268.037964
							CHANNELS 3 Zrotation Yrotation Xrotation
							JOINT joint_13
							{
								OFFSET 27.794006 -8.947001 -234.744080
								CHANNELS 3 Zrotation Yrotation Xrotation
								End Site
								{
									OFFSET 0.000000 0.000000 0.000000
								}
							}
						}
					}
				}
			}
		}
	}
	JOINT joint_14
	{
		OFFSET -6.627998 -80.520004 -98.790039
		CHANNELS 3 Zrotation Yrotation Xrotation
		JOINT joint_15
		{
			OFFSET -43.638000 -13.751999 -502.538971
			CHANNELS 3 Zrotation Yrotation Xrotation
			JOINT joint_16
			{
				OFFSET -39.532999 -9.912994 -398.071007
				CHANNELS 3 Zrotation Yrotation Xrotation
				JOINT joint_17
				{
					OFFSET 174.940004 -34.660995 -75.688002
					CHANNELS 3 Zrotation Yrotation Xrotation
					End Site
					{
						OFFSET 0.000000 0.000000 0.000000
					}
				}
			}
		}
	}
	JOINT joint_18
	{
		OFFSET 12.591003 79.842003 -98.765015
		CHANNELS 3 Zrotation Yrotation Xrotation
		JOINT joint_19
		{
			OFFSET -39.080002 -1.297001 -503.101013
			CHANNELS 3 Zrotation Yrotation Xrotation
			JOINT joint_20
			{
				OFFSET -51.570000 -0.514000 -396.815987
				CHANNELS 3 Zrotation Yrotation Xrotation
				JOINT joint_21
				{
					OFFSET 178.987999 -11.521999 -73.244003
					CHANNELS 3 Zrotation Yrotation Xrotation
					End Site
					{
						OFFSET 0.000000 0.000000 0.000000
					}
				}
			}
		}
	}
}
MOTION
Frames: 9
Frame Time: 0.016667
-2136.336426 884.578735 1095.718018 1.891805 -0.333707 -0.816646 0.412112 0.610122 0.905175 0.362988 -0.116162 -0.182105 0.385891 0.144909 0.134322 0.077941 -1.704945 -0.681371 0.000000 0.000000 0.000000 4.137579 1.370035 0.665987 -0.159679 1.704205 2.667426 -0.995101 3.602166 -3.911369 0.000000 0.000000 0.000000 1.204983 -0.292545 0.455124 -0.105456 0.159556 -2.748722 0.734510 1.177143 7.174670 0.000000 0.000000 0.000000 0.350445 -4.302220 -0.795026 -0.114757 5.951361 1.277928 0.262372 -2.125946 -0.308256 0.000000 0.000000 0.000000 0.182547 -5.047012 3.712549 0.408676 7.056600 0.764138 0.543626 -1.426412 0.128869 0.000000 0.000000 0.000000 
-2136.715820 884.580627 1095.703979 1.865087 -0.393785 -0.830840 0.414084 0.634424 0.922516 0.364098 -0.118994 -0.184881 0.387468 0.150460 0.137219 0.080637 -1.712625 -0.691716 0.000000 0.000000 0.000000 4.110564 1.380338 0.687926 -0.161661 1.715959 2.655883 -0.995150 3.596217 -3.917265 0.000000 0.000000 0.000000 1.191256 -0.283706 0.431009 -0.106904 0.168027 -2.761189 0.735310 1.192524 7.184273 0.000000 0.000000 0.000000 0.359515 -4.260607 -0.785772 -0.104741 5.946003 1.287480 0.271698 -2.104307 -0.299955 0.000000 0.000000 0.000000 0.194601 -5.018226 3.722890 0.420384 7.091776 0.777201 0.556818 -1.423803 0.134372 0.000000 0.000000 0.000000 
-2137.126709 884.589050 1095.692993 1.836906 -0.451070 -0.843708 0.417324 0.659100 0.939492 0.366497 -0.122317 -0.187694 0.390312 0.155284 0.139716 0.083838 -1.714766 -0.702181 0.000000 0.000000 0.000000 4.081550 1.390484 0.706814 -0.163148 1.726169 2.647933 -0.995221 3.590915 -3.922935 0.000000 0.000000 0.000000 1.176685 -0.276260 0.410556 -0.108253 0.176210 -2.774423 0.735928 1.205471 7.191170 0.000000 0.000000 0.000000 0.369214 -4.229810 -0.777924 -0.094748 5.953304 1.296185 0.281495 -2.087453 -0.292402 0.000000 0.000000 0.000000 0.206441 -4.996840 3.731226 0.431702 7.133069 0.790685 0.569776 -1.424427 0.139568 0.000000 0.000000 0.000000 
-2137.560791 884.600342 1095.691040 1.807517 -0.496548 -0.852343 0.423231 0.669137 0.949792 0.372004 -0.124992 -0.188046 0.395889 0.156794 0.139362 0.086881 -1.704081 -0.708811 0.000000 0.000000 0.000000 4.046566 1.404538 0.723580 -0.164104 1.737878 2.647410 -0.995814 3.589685 -3.929373 0.000000 0.000000 0.000000 1.161474 -0.267136 0.395664 -0.108920 0.187043 -2.785606 0.736121 1.212247 7.192329 0.000000 0.000000 0.000000 0.379577 -4.220591 -0.774781 -0.085460 5.976048 1.304933 0.291289 -2.075669 -0.285859 0.000000 0.000000 0.000000 0.218610 -4.990907 3.736720 0.443410 7.176641 0.801045 0.582732 -1.423588 0.144855 0.000000 0.000000 0.000000 
-2138.022949 884.615295 1095.694946 1.777212 -0.534331 -0.858315 0.430374 0.670365 0.955616 0.379083 -0.125946 -0.186258 0.402777 0.156874 0.137586 0.090208 -1.684993 -0.714136 0.000000 0.000000 0.000000 4.009826 1.419761 0.736936 -0.164442 1.748885 2.653442 -0.996883 3.591658 -3.936786 0.000000 0.000000 0.000000 1.146028 -0.258458 0.386412 -0.109327 0.198772 -2.797061 0.735981 1.215397 7.189025 0.000000 0.000000 0.000000 0.390701 -4.228386 -0.774531 -0.076452 6.013551 1.313244 0.301421 -2.068828 -0.280153 0.000000 0.000000 0.000000 0.230603 -4.997722 3.739691 0.454834 7.226294 0.810548 0.595394 -1.424730 0.149892 0.000000 0.000000 0.000000 
-2138.504639 884.638306 1095.701050 1.746558 -0.570873 -0.862192 0.438381 0.670996 0.961379 0.386955 -0.126412 -0.185823 0.410593 0.156238 0.136910 0.093938 -1.661272 -0.719506 0.000000 0.000000 0.000000 3.971286 1.436057 0.749764 -0.164931 1.761044 2.656819 -0.997230 3.590722 -3.941650 0.000000 0.000000 0.000000 1.133269 -0.248677 0.375788 -0.109133 0.210531 -2.806533 0.735869 1.212805 7.184580 0.000000 0.000000 0.000000 0.401717 -4.240060 -0.776514 -0.067811 6.053933 1.320676 0.311242 -2.062944 -0.274772 0.000000 0.000000 0.000000 0.242622 -5.003673 3.741091 0.466375 7.268724 0.817985 0.607793 -1.422730 0.155024 0.000000 0.000000 0.000000 
-2138.997803 884.671814 1095.708008 1.715474 -0.608678 -0.863657 0.445428 0.674535 0.967265 0.393731 -0.130373 -0.186452 0.417540 0.159217 0.137399 0.098153 -1.636825 -0.726165 0.000000 0.000000 0.000000 3.934212 1.452259 0.765605 -0.166247 1.775413 2.650301 -0.996187 3.582484 -3.942494 0.000000 0.000000 0.000000 1.132144 -0.236422 0.359671 -0.108065 0.220975 -2.812410 0.735953 1.201838 7.180197 0.000000 0.000000 0.000000 0.412732 -4.249136 -0.780759 -0.058944 6.090032 1.326134 0.320879 -2.054831 -0.269030 0.000000 0.000000 0.000000 0.254466 -5.000383 3.741167 0.477954 7.292399 0.822230 0.619511 -1.412148 0.160434 0.000000 0.000000 0.000000 
-2139.506348 884.713562 1095.717041 1.683434 -0.645367 -0.862606 0.452916 0.676277 0.971632 0.401013 -0.132917 -0.186826 0.424960 0.161481 0.138143 0.102530 -1.607353 -0.731999 0.000000 0.000000 0.000000 3.895241 1.469546 0.783226 -0.168056 1.791901 2.637415 -0.993891 3.567972 -3.939557 0.000000 0.000000 0.000000 1.138180 -0.222155 0.341061 -0.106206 0.231303 -2.815941 0.736147 1.182919 7.175116 0.000000 0.000000 0.000000 0.423795 -4.260759 -0.787419 -0.050129 6.126698 1.330090 0.330315 -2.046147 -0.263262 0.000000 0.000000 0.000000 0.266531 -4.993103 3.739611 0.489904 7.302905 0.823776 0.631025 -1.395324 0.166164 0.000000 0.000000 0.000000 
-2140.037354 884.760254 1095.725952 1.654789 -0.685030 -0.861437 0.459204 0.684613 0.979649 0.406819 -0.136380 -0.189249 0.431121 0.165679 0.139719 0.107281 -1.581267 -0.739906 0.000000 0.000000 0.000000 3.861460 1.485252 0.801781 -0.170272 1.808254 2.621387 -0.992052 3.556428 -3.937442 0.000000 0.000000 0.000000 1.145550 -0.209284 0.321466 -0.104629 0.239327 -2.817482 0.736223 1.167452 7.170144 0.000000 0.000000 0.000000 0.433649 -4.267504 -0.794232 -0.042213 6.157944 1.333547 0.338627 -2.035937 -0.257676 0.000000 0.000000 0.000000 0.277294 -4.982298 3.739064 0.500910 7.309469 0.822140 0.641197 -1.378405 0.171357 0.000000 0.000000 0.000000 
